
<svg xmlns="http://www.w3.org/2000/svg" version="1.1" xmlns:xlink="http://www.w3.org/1999/xlink" preserveAspectRatio="none" x="0px" y="0px" width="100px" height="100px" viewBox="0 0 100 100">
<defs>
<filter id="Filter_1" x="-20%" y="-20%" width="140%" height="140%" color-interpolation-filters="sRGB">
<feColorMatrix in="SourceGraphic" type="matrix" values="0 0 0 0 1 0 0 0 0 1 0 0 0 0 1 0 0 0 1 0" result="result1"/>
</filter>

<path id="icone_persona_cartas_0_Layer0_0_1_STROKES" stroke="#650199" stroke-width="1" stroke-linejoin="round" stroke-linecap="round" fill="none" d="
M -23.818097686767576 5.105669403076171
L -22.4631103515625 8.144469451904296 -19.152178955078124 8.490303039550781 -21.624038696289062 10.718378448486327 -20.932371520996092 13.972615814208984 -20.938040924072265 13.972615814208984 -23.818097686767576 12.317150115966797 -26.69815444946289 13.972615814208984 -26.012156677246093 10.718378448486327 -28.48401641845703 8.490303039550781 -25.173085021972657 8.144469451904296 -23.818097686767576 5.105669403076171 Z"/>

<path id="icone_persona_cartas_0_Layer0_1_1_STROKES" stroke="#650199" stroke-width="1.5" stroke-linejoin="round" stroke-linecap="round" fill="none" d="
M -31.347933197021487 2.134442138671875
L -16.351368713378907 2.134442138671875 -16.351368713378907 24.101886749267578 -31.347933197021487 24.101886749267578 -31.347933197021487 2.134442138671875 Z"/>

<path id="icone_persona_cartas_0_Layer0_2_1_STROKES" stroke="#650199" stroke-width="1" stroke-linejoin="round" stroke-linecap="round" fill="none" d="
M 17.131902313232423 5.105669403076171
L 18.4868896484375 8.144469451904296 21.797821044921875 8.490303039550781 19.325961303710937 10.718378448486327 20.017628479003907 13.972615814208984 20.011959075927734 13.972615814208984 17.131902313232423 12.317150115966797 14.251845550537109 13.972615814208984 14.937843322753906 10.718378448486327 12.465983581542968 8.490303039550781 15.776914978027344 8.144469451904296 17.131902313232423 5.105669403076171 Z"/>

<path id="icone_persona_cartas_0_Layer0_3_1_STROKES" stroke="#650199" stroke-width="1.5" stroke-linejoin="round" stroke-linecap="round" fill="none" d="
M 9.602066802978513 2.134442138671875
L 24.598631286621092 2.134442138671875 24.598631286621092 24.101886749267578 9.602066802978513 24.101886749267578 9.602066802978513 2.134442138671875 Z"/>

<path id="icone_persona_cartas_0_Layer0_4_1_STROKES" stroke="#650199" stroke-width="1" stroke-linejoin="round" stroke-linecap="round" fill="none" d="
M -3.518097686767578 -13.844330596923827
L -2.1631103515625005 -10.805530548095703 1.1478210449218746 -10.459696960449218 -1.3240386962890627 -8.231621551513673 -0.6323715209960943 -4.977384185791015 -0.638040924072266 -4.977384185791015 -3.518097686767578 -6.632849884033203 -6.398154449462891 -4.977384185791015 -5.712156677246094 -8.231621551513673 -8.184016418457032 -10.459696960449218 -4.873085021972656 -10.805530548095703 -3.518097686767578 -13.844330596923827 Z"/>

<path id="icone_persona_cartas_0_Layer0_5_1_STROKES" stroke="#650199" stroke-width="1.5" stroke-linejoin="round" stroke-linecap="round" fill="none" d="
M -11.097933197021487 -16.815557861328124
L 3.898631286621093 -16.815557861328124 3.898631286621093 5.151886749267579 -11.097933197021487 5.151886749267579 -11.097933197021487 -16.815557861328124 Z"/>
</defs>

<g transform="matrix( 1.53424072265625, 0, 0, 1.53424072265625, 55.7,46.95) ">
<g transform="matrix( 0.1133880615234375, 0, 0, 0.1133880615234375, -28.45,5.1) ">
<use filter="url(#Filter_1)" xlink:href="#icone_persona_cartas_0_Layer0_0_1_STROKES" transform="matrix( 8.819259643554688, 0, 0, 8.819259643554688, 250.9,-44.95) "/>
</g>

<g transform="matrix( 0.9172210693359375, 0, 0, 0.9172210693359375, -0.3,0.3) ">
<use filter="url(#Filter_1)" xlink:href="#icone_persona_cartas_0_Layer0_1_1_STROKES" transform="matrix( 1.090240478515625, 0, 0, 1.090240478515625, 0.3,-0.3) "/>
</g>

<g transform="matrix( 0.1133880615234375, 0, 0, 0.1133880615234375, 12.5,5.1) ">
<use filter="url(#Filter_1)" xlink:href="#icone_persona_cartas_0_Layer0_2_1_STROKES" transform="matrix( 8.819259643554688, 0, 0, 8.819259643554688, -110.2,-44.95) "/>
</g>

<g transform="matrix( 0.9172210693359375, 0, 0, 0.9172210693359375, 40.65,0.3) ">
<use filter="url(#Filter_1)" xlink:href="#icone_persona_cartas_0_Layer0_3_1_STROKES" transform="matrix( 1.090240478515625, 0, 0, 1.090240478515625, -44.3,-0.3) "/>
</g>

<g transform="matrix( 0.1133880615234375, 0, 0, 0.1133880615234375, -8.15,-13.85) ">
<use filter="url(#Filter_1)" xlink:href="#icone_persona_cartas_0_Layer0_4_1_STROKES" transform="matrix( 8.819259643554688, 0, 0, 8.819259643554688, 71.85,122.1) "/>
</g>

<g transform="matrix( 0.9172210693359375, 0, 0, 0.9172210693359375, 19.95,-18.65) ">
<use filter="url(#Filter_1)" xlink:href="#icone_persona_cartas_0_Layer0_5_1_STROKES" transform="matrix( 1.090240478515625, 0, 0, 1.090240478515625, -21.75,20.3) "/>
</g>
</g>
</svg>
