
<svg xmlns="http://www.w3.org/2000/svg" version="1.1" xmlns:xlink="http://www.w3.org/1999/xlink" preserveAspectRatio="none" x="0px" y="0px" width="100px" height="100px" viewBox="0 0 100 100">
<defs>
<path id="x_0_Layer0_0_1_STROKES" stroke="#FFFFFF" stroke-width="1.5" stroke-linejoin="round" stroke-linecap="round" fill="none" d="
M 20.861059570312364 10.434545898437591
Q 20.861059570312364 14.731799316406295 17.761401367187545 17.761010742187523 14.732189941406205 20.860668945312455 10.4349365234375 20.860668945312455 6.1376831054687955 20.860668945312455 3.03802490234375 17.761010742187523 0.00881347656240905 14.731799316406295 0.00881347656240905 10.434545898437591 0.00881347656240905 6.137292480468773 3.03802490234375 3.037634277343841 6.1376831054687955 0.0084228515625 10.4349365234375 0.0084228515625 14.732189941406205 0.0084228515625 17.761401367187545 3.037634277343841 20.861059570312364 6.137292480468773 20.861059570312364 10.434545898437591 Z"/>

<path id="x_0_Layer0_1_1_STROKES" stroke="#FFFFFF" stroke-width="1.5" stroke-linejoin="round" stroke-linecap="round" fill="none" d="
M 10.396618652343932 10.423913574218773
L 14.482531738281295 14.50982666015625
M 10.396618652343932 10.423913574218773
L 6.310705566406341 14.50982666015625
M 14.482531738281295 6.338000488281182
L 10.396618652343932 10.423913574218773 6.310705566406341 6.338000488281182"/>
</defs>

<g transform="matrix( 3.197113037109375, 0, 0, 3.197113037109375, 16.7,16.7) ">
<g transform="matrix( 1.408935546875, 0, 0, 1.408935546875, -1527.7,-583.15) ">
<use xlink:href="#x_0_Layer0_0_1_STROKES" transform="matrix( 0.709747314453125, 0, 0, 0.709747314453125, 1084.25,413.85) "/>
</g>

<g transform="matrix( 1.408935546875, 0, 0, 1.408935546875, -1524.85,-617.75) ">
<use xlink:href="#x_0_Layer0_1_1_STROKES" transform="matrix( 0.709747314453125, 0, 0, 0.709747314453125, 1082.25,438.45) "/>
</g>
</g>
</svg>
