
<svg xmlns="http://www.w3.org/2000/svg" version="1.1" xmlns:xlink="http://www.w3.org/1999/xlink" preserveAspectRatio="none" x="0px" y="0px" width="100px" height="100px" viewBox="0 0 100 100">
<defs>
<path id="FL_1_0_Layer0_0_1_STROKES" stroke="#FFFFFF" stroke-width="1.5" stroke-linejoin="round" stroke-linecap="round" fill="none" d="
M 1083 494.8
Q 1083 503.45 1076.85 509.55 1070.75 515.7 1062.1 515.7 1053.45 515.7 1047.3 509.55 1041.2 503.45 1041.2 494.8 1041.2 486.15 1047.3 480 1053.45 473.9 1062.1 473.9 1070.75 473.9 1076.85 480 1083 486.15 1083 494.8 Z"/>

<path id="FL_1_0_Layer0_1_1_STROKES" stroke="#FFFFFF" stroke-width="1" stroke-linejoin="round" stroke-linecap="round" fill="none" d="
M 23.350506591796872 33.61827392578125
Q 23.350506591796872 34.62904205322266 22.63186798095701 35.34183807373047 21.919071960449216 36.06047668457032 20.908303833007793 36.06047668457032 19.897535705566412 36.06047668457032 19.17889709472655 35.34183807373047 18.466101074218756 34.62904205322266 18.466101074218756 33.61827392578125 18.466101074218756 32.607505798339844 19.17889709472655 31.8888671875 19.897535705566412 31.176071166992184 20.908303833007793 31.176071166992184 21.919071960449216 31.176071166992184 22.63186798095701 31.8888671875 23.350506591796872 32.607505798339844 23.350506591796872 33.61827392578125 Z"/>

<path id="FL_1_0_Layer0_2_MEMBER_0_1_STROKES" stroke="#FFFFFF" stroke-width="1" stroke-linejoin="round" stroke-linecap="butt" fill="none" d="
M 8.939910888671932 18.241610717773433
Q 8.611401367187511 17.714932227134703 8.611401367187511 16.997967529296865 8.611401367187511 16.28100283145904 8.939910888671932 15.754324340820311
L 8.939910888671932 15.089483642578124
Q 8.939910888671932 14.463751220703124 8.314178466796932 14.463751220703124
L 6.202331542968807 14.463751220703124
Q 5.576599121093807 14.463751220703124 5.576599121093807 15.089483642578124
L 5.576599121093807 25.867724609374996
Q 5.576599121093807 26.493457031249996 6.202331542968807 26.493457031249996
L 8.314178466796932 26.493457031249996
Q 8.939910888671932 26.493457031249996 8.939910888671932 25.867724609374996
L 8.939910888671932 24.498934936523433
Q 8.611401367187511 23.972256445884703 8.611401367187511 23.255291748046865 8.611401367187511 22.53832705020904 8.939910888671932 22.01164855957031 8.976880431175289 21.95139737129211 9.018127441406307 21.89432373046875 9.093471980094932 21.781276369094847 9.174560546875057 21.690960693359365 9.093471980094932 21.600645017623897 9.018127441406307 21.487597656249996 8.976880431175289 21.430524015426634 8.939910888671932 21.370272827148433 8.611401367187511 20.843594336509703 8.611401367187511 20.126629638671865 8.611401367187511 19.40966494083404 8.939910888671932 18.88298645019531 8.976880431175289 18.82273526191711 9.018127441406307 18.76566162109375 9.093471980094932 18.652614259719847 9.174560546875057 18.562298583984365 9.093471980094932 18.471982908248897 9.018127441406307 18.358935546874996 8.976880431175289 18.301861906051634 8.939910888671932 18.241610717773433 Z
M 8.939910888671932 18.241610717773433
L 8.939910888671932 18.88298645019531
M 8.939910888671932 22.01164855957031
L 8.939910888671932 21.370272827148433"/>

<path id="FL_1_0_Layer0_2_MEMBER_1_1_STROKES" stroke="#FFFFFF" stroke-width="1" stroke-linejoin="round" stroke-linecap="butt" fill="none" d="
M 6.440286254882835 13.97958755493164
L 6.440286254882835 12.858844757080078 8.059136962890648 12.858844757080078 8.059136962890648 13.97958755493164"/>

<path id="FL_1_0_Layer0_2_MEMBER_2_1_STROKES" stroke="#FFFFFF" stroke-width="1" stroke-linejoin="round" stroke-linecap="butt" fill="none" d="
M 32.91008911132809 18.241610717773433
Q 33.23859863281251 17.714932227134703 33.23859863281251 16.997967529296865 33.23859863281251 16.28100283145904 32.91008911132809 15.754324340820311
L 32.91008911132809 15.089483642578124
Q 32.91008911132809 14.463751220703124 33.53582153320309 14.463751220703124
L 35.647668457031216 14.463751220703124
Q 36.273400878906216 14.463751220703124 36.273400878906216 15.089483642578124
L 36.273400878906216 25.867724609374996
Q 36.273400878906216 26.493457031249996 35.647668457031216 26.493457031249996
L 33.53582153320309 26.493457031249996
Q 32.91008911132809 26.493457031249996 32.91008911132809 25.867724609374996
L 32.91008911132809 24.498934936523433
Q 33.23859863281251 23.972256445884703 33.23859863281251 23.255291748046865 33.23859863281251 22.53832705020904 32.91008911132809 22.01164855957031 32.873119568824734 21.95139737129211 32.831872558593716 21.89432373046875 32.75652801990509 21.781276369094847 32.675439453124966 21.690960693359365 32.75652801990509 21.600645017623897 32.831872558593716 21.487597656249996 32.873119568824734 21.430524015426634 32.91008911132809 21.370272827148433 33.23859863281251 20.843594336509703 33.23859863281251 20.126629638671865 33.23859863281251 19.40966494083404 32.91008911132809 18.88298645019531 32.873119568824734 18.82273526191711 32.831872558593716 18.76566162109375 32.75652801990509 18.652614259719847 32.675439453124966 18.562298583984365 32.75652801990509 18.471982908248897 32.831872558593716 18.358935546874996 32.873119568824734 18.301861906051634 32.91008911132809 18.241610717773433 Z
M 32.91008911132809 18.241610717773433
L 32.91008911132809 18.88298645019531
M 32.91008911132809 22.01164855957031
L 32.91008911132809 21.370272827148433"/>

<path id="FL_1_0_Layer0_2_MEMBER_3_1_STROKES" stroke="#FFFFFF" stroke-width="1" stroke-linejoin="round" stroke-linecap="butt" fill="none" d="
M 35.40971374511719 13.97958755493164
L 35.40971374511719 12.858844757080078 33.790863037109375 12.858844757080078 33.790863037109375 13.97958755493164"/>

<path id="FL_1_0_Layer0_3_1_STROKES" stroke="#FFFFFF" stroke-width="1" stroke-linejoin="round" stroke-linecap="round" fill="none" d="
M 872.25 348.75
L 872.25 350.25
M 872.25 356.15
L 872.25 357.95
M 874.95 353.35
L 876.75 353.35
M 867.55 353.35
L 869.05 353.35"/>

<path id="FL_1_0_Layer0_4_1_STROKES" stroke="#FFFFFF" stroke-width="1.5" stroke-linejoin="round" stroke-linecap="butt" fill="none" d="
M 888.85 391.2
L 888.85 395.4 885.55 398.7 877.05 398.7"/>

<path id="FL_1_0_Layer0_5_1_STROKES" stroke="#FFFFFF" stroke-width="1.5" stroke-linejoin="round" stroke-linecap="butt" fill="none" d="
M 7.199999999999932 26.30000000000001
L 7.199999999999932 30.5 10.5 33.80000000000001 19 33.80000000000001"/>

<path id="FL_1_0_Layer0_6_1_STROKES" stroke="#FFFFFF" stroke-width="1" stroke-linejoin="round" stroke-linecap="butt" fill="none" d="
M 949.35 199.1
L 955.75 188.85 961.95 188.85 968.5 199.3"/>
</defs>

<g transform="matrix( 1.8479461669921875, 0, 0, 1.8479461669921875, 11.4,11.4) ">
<g transform="matrix( 1, 0, 0, 1, -1041.2,-473.9) ">
<use xlink:href="#FL_1_0_Layer0_0_1_STROKES"/>
</g>

<g transform="matrix( 0.116851806640625, 0, 0, 0.116851806640625, -103.2,-24.2) ">
<use xlink:href="#FL_1_0_Layer0_1_1_STROKES" transform="matrix( 8.557846069335938, 0, 0, 8.557846069335938, 883.15,207.05) "/>
</g>

<g transform="matrix( -0.3128662109375, 0, 0, 0.3128662109375, 265.85,-53.35) ">
<use xlink:href="#FL_1_0_Layer0_2_MEMBER_0_1_STROKES" transform="matrix( -3.1962432861328125, 0, 0, 3.1962432861328125, 849.7,170.5) "/>
</g>

<g transform="matrix( 0.6226348876953125, 0, 0, 0.6226348876953125, -463.4,-131.25) ">
<use xlink:href="#FL_1_0_Layer0_2_MEMBER_1_1_STROKES" transform="matrix( 1.6060638427734375, 0, 0, 1.6060638427734375, 744.25,210.75) "/>
</g>

<g transform="matrix( 0.3128662109375, 0, 0, 0.3128662109375, -224,-53.35) ">
<use xlink:href="#FL_1_0_Layer0_2_MEMBER_2_1_STROKES" transform="matrix( 3.1962432861328125, 0, 0, 3.1962432861328125, 715.95,170.5) "/>
</g>

<g transform="matrix( -0.6226348876953125, 0, 0, 0.6226348876953125, 505.25,-131.25) ">
<use xlink:href="#FL_1_0_Layer0_2_MEMBER_3_1_STROKES" transform="matrix( -1.6060638427734375, 0, 0, 1.6060638427734375, 811.45,210.75) "/>
</g>

<g transform="matrix( 1, 0, 0, 1, -851.25,-342.5) ">
<use xlink:href="#FL_1_0_Layer0_3_1_STROKES"/>
</g>

<g transform="matrix( 1, 0, 0, 1, -854.25,-364.9) ">
<use xlink:href="#FL_1_0_Layer0_4_1_STROKES"/>
</g>

<g transform="matrix( -1, 0, 0, 1, 896.05,-364.9) ">
<use xlink:href="#FL_1_0_Layer0_5_1_STROKES" transform="matrix( -1, 0, 0, 1, 896.05,364.9) "/>
</g>

<g transform="matrix( 1, 0, 0, 1, -937.7,-160.2) ">
<use xlink:href="#FL_1_0_Layer0_6_1_STROKES"/>
</g>
</g>
</svg>
