
<svg xmlns="http://www.w3.org/2000/svg" version="1.1" xmlns:xlink="http://www.w3.org/1999/xlink" preserveAspectRatio="none" x="0px" y="0px" width="100px" height="100px" viewBox="0 0 100 100">
<defs>
<path id="FL_2_0_Layer0_0_1_STROKES" stroke="#FFFFFF" stroke-width="1" stroke-linejoin="round" stroke-linecap="round" fill="none" d="
M 33.103643798828145 9.490112304687486
Q 34.41152954101564 10.79799804687498 34.41152954101561 12.643051147460938 34.41152954101561 14.488104248046866 33.103643798828145 15.79598999023436 31.795758056640622 17.10387573242187 29.95070495605468 17.10387573242187 29.138020372390727 17.103875732421884 28.426784515380845 16.852808380126945
L 16.480649566650385 28.79894332885742
Q 16.731716918945324 29.5101791858673 16.73171691894531 30.32286376953124 16.73171691894531 32.16791687011718 15.423831176757801 33.47580261230469 14.217895931005472 34.68173785805702 12.556992340087902 34.77784957885741
L 13.683876037597656 31.43223114013672
Q 13.940782165527338 30.70822296142579 13.205096435546878 30.462994384765608
L 11.278300476074207 29.797373962402347
Q 10.542614746093761 29.55214538574218 10.285708618164065 30.276153564453125
L 9.182180023193354 33.54002914428712
Q 9.150705373287195 33.50855449438096 9.117953491210926 33.47580261230469 7.810067749023432 32.167916870117196 7.810067749023446 30.32286376953124 7.810067749023432 28.47781066894531 9.117953491210926 27.169924926757815 10.425839233398435 25.862039184570307 12.270892333984378 25.862039184570307 13.083576917648315 25.862039184570293 13.794812774658197 26.11310653686523
L 25.740947723388658 14.166971588134757
Q 25.489880371093747 13.455735731124875 25.489880371093747 12.643051147460938 25.489880371093747 10.797998046874994 26.79776611328127 9.490112304687486 28.003792589902886 8.28408582806587 29.66460494995117 8.188065338134763
L 28.537721252441415 11.533683776855455
Q 28.280815124511733 12.257691955566386 29.01650085449218 12.502920532226568
L 30.943296813964864 13.16854095458983
Q 31.67898254394531 13.413769531249997 31.93588867187499 12.689761352539051
L 33.03941726684572 9.425885772705058
Q 33.070937532186505 9.457406038045875 33.103643798828145 9.490112304687486 Z"/>

<path id="FL_2_0_Layer0_1_1_STROKES" stroke="#FFFFFF" stroke-width="1.5" stroke-linejoin="round" stroke-linecap="round" fill="none" d="
M 1083 494.8
Q 1083 503.45 1076.85 509.55 1070.75 515.7 1062.1 515.7 1053.45 515.7 1047.3 509.55 1041.2 503.45 1041.2 494.8 1041.2 486.15 1047.3 480 1053.45 473.9 1062.1 473.9 1070.75 473.9 1076.85 480 1083 486.15 1083 494.8 Z"/>
</defs>

<g transform="matrix( 1.8479461669921875, 0, 0, 1.8479461669921875, 11.4,11.4) ">
<g transform="matrix( 0.233551025390625, -0.233551025390625, 0.233551025390625, 0.233551025390625, -106.7,102.35) ">
<use xlink:href="#FL_2_0_Layer0_0_1_STROKES" transform="matrix( 2.1408538818359375, 2.1408538818359375, -2.1408538818359375, 2.1408538818359375, 447.5,9.3) "/>
</g>

<g transform="matrix( 1, 0, 0, 1, -1041.2,-473.9) ">
<use xlink:href="#FL_2_0_Layer0_1_1_STROKES"/>
</g>
</g>
</svg>
