
<svg xmlns="http://www.w3.org/2000/svg" version="1.1" xmlns:xlink="http://www.w3.org/1999/xlink" preserveAspectRatio="none" x="0px" y="0px" width="100px" height="100px" viewBox="0 0 100 100">
<defs>
<filter id="Filter_1" x="-20%" y="-20%" width="140%" height="140%" color-interpolation-filters="sRGB">
<feColorMatrix in="SourceGraphic" type="matrix" values="0 0 0 0 1 0 0 0 0 1 0 0 0 0 1 0 0 0 1 0" result="result1"/>
</filter>

<g id="icone_persona_master_copy_2_0_Layer0_4_STROKES_1_FILL">
<path fill="#650199" stroke="none" d="
M -7.95 -14.35
Q -7.8580078125 -14.515234375 -7.95 -14.7 -8.034375 -14.8958984375 -8.25 -15 -8.4150390625 -15.041796875 -8.6 -14.95 -11.366015625 -13.670703125 -13.85 -11.65 -13.9828125 -11.4984375 -14 -11.3 -14.01328125 -11.089453125 -13.9 -10.95 -13.748828125 -10.7671875 -13.55 -10.75 -13.3396484375 -10.7373046875 -13.2 -10.9 -10.8341796875 -12.829296875 -8.2 -14.05 -8.0044921875 -14.1345703125 -7.95 -14.35
M -20.95 -2.05
Q -20.991796875 -1.8373046875 -20.9 -1.65 -20.8173828125 -1.455859375 -20.65 -1.4 -20.4369140625 -1.3078125 -20.25 -1.4 -20.05625 -1.482421875 -20 -1.7 -18.9048828125 -4.35859375 -17.15 -6.7 -17.0232421875 -6.86875 -17.05 -7.1 -17.081640625 -7.27734375 -17.25 -7.4 -17.418359375 -7.526953125 -17.65 -7.5 -17.8271484375 -7.46796875 -17.95 -7.3 -19.7953125 -4.8416015625 -20.95 -2.05
M 19 -9.1
Q 18.882421875 -9.246875 18.65 -9.25 18.4607421875 -9.262109375 18.3 -9.15 18.153125 -8.9828125 18.15 -8.8 18.13828125 -8.5607421875 18.25 -8.4 19.3603515625 -7.2365234375 20.25 -6 20.3576171875 -5.796484375 20.55 -5.75 20.7537109375 -5.722265625 20.9 -5.85 21.1041015625 -5.9576171875 21.15 -6.15 21.1775390625 -6.353125 21.05 -6.55 20.1396484375 -7.863671875 19 -9.1
M 14.8 -12.65
Q 14.7537109375 -12.8421875 14.55 -12.95 12.016015625 -14.747265625 9.15 -15.75 8.9583984375 -15.7916015625 8.75 -15.7 8.590625 -15.6017578125 8.5 -15.4 8.4580078125 -15.2078125 8.55 -15.05 8.64765625 -14.8408203125 8.85 -14.8 11.5837890625 -13.8529296875 14 -12.15 14.196484375 -12.0224609375 14.4 -12.05 14.5921875 -12.095703125 14.7 -12.3 14.8275390625 -12.4458984375 14.8 -12.65 Z"/>
</g>

<path id="icone_persona_master_copy_2_0_Layer0_0_1_STROKES" stroke="#650199" stroke-width="1.5" stroke-linejoin="round" stroke-linecap="round" fill="none" d="
M 605.3 392.15
Q 605.3 393.95 604.05 395.15 603.399609375 395.8265625 602.6 396.15 601.86328125 396.45 601 396.45 599.25 396.45 598 395.15 596.7 393.95 596.7 392.15 596.7 390.35 598 389.1 599.25 387.85 601 387.85 601.86328125 387.85 602.6 388.15 603.399609375 388.449609375 604.05 389.1 605.3 390.35 605.3 392.15 Z
M 593.6 409.9
L 593.6 405.3
Q 593.6 403.118359375 594.875 401.5 595.1103515625 401.1896484375 595.4 400.9 597.2 399.1 599.8 399.1
L 602.35 399.1
Q 602.4759765625 399.1 602.6 399.1 604.9431640625 399.190625 606.7 400.9 607.5 401.7 608 402.7"/>

<path id="icone_persona_master_copy_2_0_Layer0_1_1_STROKES" stroke="#650199" stroke-width="1.5" stroke-linejoin="round" stroke-linecap="round" fill="none" d="
M 618.35 396.65
Q 618.35 398.45 617.1 399.65 615.85 400.95 614.05 400.95 612.3 400.95 611.05 399.65 609.75 398.45 609.75 396.65 609.75 394.85 611.05 393.6 612.3 392.35 614.05 392.35 615.85 392.35 617.1 393.6 618.35 394.85 618.35 396.65 Z
M 606.65 414.4
L 606.65 409.8
Q 606.65 407.2 608.45 405.4 610.25 403.6 612.85 403.6
L 615.4 403.6
Q 617.9 403.6 619.75 405.4 621.55 407.2 621.55 409.8
L 621.55 414.4"/>

<path id="icone_persona_master_copy_2_0_Layer0_2_1_STROKES" stroke="#650199" stroke-width="1.5" stroke-linejoin="round" stroke-linecap="round" fill="none" d="
M 623.05 392.15
Q 623.05 393.95 624.3 395.15 625.55 396.45 627.35 396.45 629.1 396.45 630.35 395.15 631.65 393.95 631.65 392.15 631.65 390.35 630.35 389.1 629.1 387.85 627.35 387.85 625.55 387.85 624.3 389.1 623.05 390.35 623.05 392.15 Z
M 634.75 409.9
L 634.75 405.3
Q 634.75 402.7 632.95 400.9 631.15 399.1 628.55 399.1
L 626 399.1
Q 623.5 399.1 621.65 400.9 620.85 401.7 620.35 402.7"/>

<path id="icone_persona_master_copy_2_0_Layer0_3_1_STROKES" stroke="#650199" stroke-width="1.5" stroke-linejoin="round" stroke-linecap="round" fill="none" d="
M 618.35 396.65
Q 618.35 398.45 617.1 399.65 615.85 400.95 614.05 400.95 612.3 400.95 611.05 399.65 609.75 398.45 609.75 396.65 609.75 394.85 611.05 393.6 612.3 392.35 614.05 392.35 615.85 392.35 617.1 393.6 618.35 394.85 618.35 396.65 Z
M 606.65 414.4
L 606.65 409.8
Q 606.65 407.2 608.45 405.4 610.25 403.6 612.85 403.6
L 615.4 403.6
Q 617.9 403.6 619.75 405.4 621.55 407.2 621.55 409.8
L 621.55 414.4"/>

<path id="icone_persona_master_copy_2_0_Layer0_5_1_STROKES" stroke="#650199" stroke-width="1" stroke-linejoin="round" stroke-linecap="round" fill="none" d="
M 18.028427124023438 -3.926115417480468
L 23.904075622558594 -7.530459594726564 23.340093994140624 -1.9033889770507808 23.300123596191405 -1.87886962890625 18.028427124023438 -3.926115417480468 Z"/>
</defs>

<g transform="matrix( 1.53424072265625, 0, 0, 1.53424072265625, 48.15,44.35) ">
<g transform="matrix( 1, 0, 0, 1, -623.45,-385.9) ">
<use filter="url(#Filter_1)" xlink:href="#icone_persona_master_copy_2_0_Layer0_0_1_STROKES"/>
</g>

<g transform="matrix( 1, 0, 0, 1, -612.95,-385.9) ">
<use filter="url(#Filter_1)" xlink:href="#icone_persona_master_copy_2_0_Layer0_1_1_STROKES"/>
</g>

<g transform="matrix( 1, 0, 0, 1, -602.45,-385.9) ">
<use filter="url(#Filter_1)" xlink:href="#icone_persona_master_copy_2_0_Layer0_2_1_STROKES"/>
</g>

<g transform="matrix( 1, 0, 0, 1, -612.95,-413.5) ">
<use filter="url(#Filter_1)" xlink:href="#icone_persona_master_copy_2_0_Layer0_3_1_STROKES"/>
</g>

<g transform="matrix( 1, 0, 0, 1, 0,0) ">
<use filter="url(#Filter_1)" xlink:href="#icone_persona_master_copy_2_0_Layer0_4_STROKES_1_FILL"/>
</g>

<g transform="matrix( 0.6448974609375, 0.154510498046875, -0.154510498046875, 0.6448974609375, 7,-5) ">
<use filter="url(#Filter_1)" xlink:href="#icone_persona_master_copy_2_0_Layer0_5_1_STROKES" transform="matrix( 1.4664459228515625, -0.3513336181640625, 0.3513336181640625, 1.4664459228515625, -8.5,9.75) "/>
</g>
</g>
</svg>
