
<svg xmlns="http://www.w3.org/2000/svg" version="1.1" xmlns:xlink="http://www.w3.org/1999/xlink" preserveAspectRatio="none" x="0px" y="0px" width="100px" height="100px" viewBox="0 0 100 100">
<defs>
<path id="FL_5_0_Layer0_0_1_STROKES" stroke="#FFFFFF" stroke-width="1.5" stroke-linejoin="round" stroke-linecap="round" fill="none" d="
M 40.2 268.3
L 45.4 273.55 45.4 273.45 45.4 260.55
M 45.4 273.45
L 50.6 268.25
M 39.1 277.05
L 51.7 277.05"/>

<path id="FL_5_0_Layer0_1_1_STROKES" stroke="#FFFFFF" stroke-width="1.5" stroke-linejoin="round" stroke-linecap="round" fill="none" d="
M 1083 494.8
Q 1083 503.45 1076.85 509.55 1070.75 515.7 1062.1 515.7 1053.45 515.7 1047.3 509.55 1041.2 503.45 1041.2 494.8 1041.2 486.15 1047.3 480 1053.45 473.9 1062.1 473.9 1070.75 473.9 1076.85 480 1083 486.15 1083 494.8 Z"/>
</defs>

<g transform="matrix( 1.8479461669921875, 0, 0, 1.8479461669921875, 11.4,11.4) ">
<g transform="matrix( 1, 0, 0, 1, -23.55,-247.3) ">
<use xlink:href="#FL_5_0_Layer0_0_1_STROKES"/>
</g>

<g transform="matrix( 1, 0, 0, 1, -1041.2,-473.9) ">
<use xlink:href="#FL_5_0_Layer0_1_1_STROKES"/>
</g>
</g>
</svg>
