
<svg xmlns="http://www.w3.org/2000/svg" version="1.1" xmlns:xlink="http://www.w3.org/1999/xlink" preserveAspectRatio="none" x="0px" y="0px" width="100px" height="100px" viewBox="0 0 100 100">
<defs>
<path id="icone_0_Layer0_0_1_STROKES" stroke="#FFFFFF" stroke-width="1" stroke-linejoin="round" stroke-linecap="round" fill="none" d="
M 7.815556335449173 2.8776092529296875
Q 7.815556335449173 4.1257781982421875 6.957440185547057 4.9058837890625 6.099324035644258 5.763999938964844 4.92916564941379 5.763999938964844 3.759007263183321 5.763999938964844 2.9008911132812045 4.9058837890625 2.0427749633788608 4.1257781982421875 2.0427749633788608 2.8776092529296875 2.0427749633788608 1.7074508666992188 2.9008911132812045 0.849334716796875 3.759007263183321 -0.00878143310546875 4.92916564941379 -0.00878143310546875 6.099324035644258 -0.00878143310546875 6.957440185547057 0.849334716796875 7.815556335449173 1.7074508666992188 7.815556335449173 2.8776092529296875 Z
M 0.014500427246048275 11.692802429199219
Q 0.014500427246048275 9.8985595703125 1.184658813476517 8.728401184082031 2.3548171997069858 7.5582427978515625 4.149060058593477 7.5582427978515625
L 5.865292358398392 7.5582427978515625
Q 7.503514099121048 7.5582427978515625 8.751683044433548 8.728401184082031 9.921841430664017 9.8985595703125 9.921841430664017 11.692802429199219"/>
</defs>

<g transform="matrix( 6.07293701171875, 0, 0, 6.07293701171875, 19.95,14.5) ">
<g transform="matrix( 1.560211181640625, 0, 0, 1.560211181640625, -1717.7,-570.5) ">
<use xlink:href="#icone_0_Layer0_0_1_STROKES" transform="matrix( 0.64093017578125, 0, 0, 0.64093017578125, 1100.9,365.65) "/>
</g>
</g>
</svg>
