
<svg xmlns="http://www.w3.org/2000/svg" version="1.1" xmlns:xlink="http://www.w3.org/1999/xlink" preserveAspectRatio="none" x="0px" y="0px" width="100px" height="100px" viewBox="0 0 100 100">
<defs>
<path id="FL_4_0_Layer0_0_MEMBER_0_1_STROKES" stroke="#FFFFFF" stroke-width="1" stroke-linejoin="round" stroke-linecap="round" fill="none" d="
M 42.1 211.3
Q 42.1 212.3 41.4 212.95 41.05 213.35 40.6 213.5 40.2 213.7 39.75 213.7 38.75 213.7 38.05 212.95 37.35 212.3 37.35 211.3 37.35 210.3 38.05 209.65 38.75 208.95 39.75 208.95 40.2 208.95 40.6 209.1 41.05 209.25 41.4 209.65 42.1 210.3 42.1 211.3 Z
M 35.65 221.6
L 35.65 219.1
Q 35.65 217.85 36.35 217 36.45 216.8 36.65 216.65 37.65 215.65 39.05 215.65
L 40.5 215.65
Q 40.55 215.65 40.6 215.65 41.9 215.7 42.9 216.65 43.3 217.1 43.6 217.65"/>

<path id="FL_4_0_Layer0_0_MEMBER_1_1_STROKES" stroke="#FFFFFF" stroke-width="1" stroke-linejoin="round" stroke-linecap="round" fill="none" d="
M 961.4 502.55
Q 961.4 503.55 960.75 504.2 960.05 504.95 959.05 504.95 958.05 504.95 957.4 504.2 956.65 503.55 956.65 502.55 956.65 501.55 957.4 500.85 958.05 500.15 959.05 500.15 960.05 500.15 960.75 500.85 961.4 501.55 961.4 502.55 Z
M 954.95 512.85
L 954.95 510.3
Q 954.95 508.9 955.95 507.9 956.95 506.9 958.4 506.9
L 959.8 506.9
Q 961.15 506.9 962.2 507.9 963.2 508.9 963.2 510.3
L 963.2 512.85"/>

<path id="FL_4_0_Layer0_0_MEMBER_2_1_STROKES" stroke="#FFFFFF" stroke-width="1" stroke-linejoin="round" stroke-linecap="round" fill="none" d="
M 53.15 211.3
Q 53.15 212.3 53.85 212.95 54.55 213.7 55.55 213.7 56.5 213.7 57.2 212.95 57.9 212.3 57.9 211.3 57.9 210.3 57.2 209.65 56.5 208.95 55.55 208.95 54.55 208.95 53.85 209.65 53.15 210.3 53.15 211.3 Z
M 59.65 221.6
L 59.65 219.1
Q 59.65 217.65 58.65 216.65 57.65 215.65 56.2 215.65
L 54.8 215.65
Q 53.4 215.65 52.4 216.65 51.95 217.1 51.65 217.65"/>

<path id="FL_4_0_Layer0_1_1_STROKES" stroke="#FFFFFF" stroke-width="1.5" stroke-linejoin="round" stroke-linecap="round" fill="none" d="
M 1083 494.8
Q 1083 503.45 1076.85 509.55 1070.75 515.7 1062.1 515.7 1053.45 515.7 1047.3 509.55 1041.2 503.45 1041.2 494.8 1041.2 486.15 1047.3 480 1053.45 473.9 1062.1 473.9 1070.75 473.9 1076.85 480 1083 486.15 1083 494.8 Z"/>
</defs>

<g transform="matrix( 1.8479461669921875, 0, 0, 1.8479461669921875, 11.4,11.4) ">
<g transform="matrix( 1, 0, 0, 1, -27.75,-195.5) ">
<use xlink:href="#FL_4_0_Layer0_0_MEMBER_0_1_STROKES"/>
</g>

<g transform="matrix( 1, 0, 0, 1, -937.7,-482.4) ">
<use xlink:href="#FL_4_0_Layer0_0_MEMBER_1_1_STROKES"/>
</g>

<g transform="matrix( 1, 0, 0, 1, -24.75,-195.5) ">
<use xlink:href="#FL_4_0_Layer0_0_MEMBER_2_1_STROKES"/>
</g>

<g transform="matrix( 1, 0, 0, 1, -1041.2,-473.9) ">
<use xlink:href="#FL_4_0_Layer0_1_1_STROKES"/>
</g>
</g>
</svg>
