
<svg xmlns="http://www.w3.org/2000/svg" version="1.1" xmlns:xlink="http://www.w3.org/1999/xlink" preserveAspectRatio="none" x="0px" y="0px" width="100px" height="100px" viewBox="0 0 100 100">
<defs>
<filter id="Filter_1" x="-20%" y="-20%" width="140%" height="140%" color-interpolation-filters="sRGB">
<feColorMatrix in="SourceGraphic" type="matrix" values="0 0 0 0 1 0 0 0 0 1 0 0 0 0 1 0 0 0 1 0" result="result1"/>
</filter>

<path id="icone_persona_copy_4_0_Layer0_0_1_STROKES" stroke="#650199" stroke-width="1.5" stroke-linejoin="round" stroke-linecap="round" fill="none" d="
M 14.725 2.4
Q 15.85 3.8919921875 15.85 5.85 15.85 8.3 14.15 9.95 12.5 11.7 10.05 11.7 7.65 11.7 5.95 9.95 4.2 8.3 4.2 5.85 4.2 3.7033203125 5.6 2.125
M 0 28.4
L 0 23.7
Q 0 20.2 2.45 17.75 4.9 15.3 8.4 15.3
L 11.85 15.3
Q 15.3 15.3 17.75 17.75 20.2 20.2 20.2 23.7
L 20.2 28.4"/>

<path id="icone_persona_copy_4_0_Layer0_1_1_STROKES" stroke="#650199" stroke-width="1" stroke-linejoin="round" stroke-linecap="round" fill="none" d="
M 12.85 25.2
L 10.55 27.5 8.35 25.275"/>

<path id="icone_persona_copy_4_0_Layer0_2_1_STROKES" stroke="#650199" stroke-width="1" stroke-linejoin="round" stroke-linecap="round" fill="none" d="
M 15.8 0.5
L 10.3 6 4.8 0.5"/>

<path id="icone_persona_copy_4_0_Layer0_3_1_STROKES" stroke="#650199" stroke-width="1.5" stroke-linejoin="round" stroke-linecap="butt" fill="none" d="
M 25.7 17.35
L 25.7 -1.2 30.35 3.85 30.35 17.35"/>

<path id="icone_persona_copy_4_0_Layer0_4_1_STROKES" stroke="#650199" stroke-width="1.5" stroke-linejoin="round" stroke-linecap="butt" fill="none" d="
M 27.489391326904293 19.974668121337892
L 27.489391326904293 25.7348388671875"/>

<path id="icone_persona_copy_4_0_Layer0_5_1_STROKES" stroke="#650199" stroke-width="1" stroke-linejoin="round" stroke-linecap="round" fill="none" d="
M 23.116805267333987 19.603825378417966
L 31.89804458618164 19.603825378417966"/>

<path id="icone_persona_copy_4_0_Layer0_6_1_STROKES" stroke="#650199" stroke-width="1" stroke-linejoin="round" stroke-linecap="butt" fill="none" d="
M 39.7 27.3
Q 39.7 27.8 39.3 28.2 38.9 28.6 38.35 28.6 37.85 28.6 37.45 28.2 37.05 27.8 37.05 27.25 37.05 26.75 37.45 26.35 37.85 25.95 38.35 25.95 38.9 25.95 39.3 26.35 39.7 26.75 39.7 27.3 Z"/>

<path id="icone_persona_copy_4_0_Layer0_7_1_STROKES" stroke="#650199" stroke-width="1" stroke-linejoin="round" stroke-linecap="round" fill="none" d="
M 15.8 0.5
L 10.3 6 4.5 0
Q 6.8541015625 -2.2 10.1 -2.2 13.5 -2.2 15.85 0.15 15.95234375 0.254296875 16.05 0.35"/>
</defs>

<g transform="matrix( 1.893310546875, 0, 0, 1.893310546875, 19.8,25.2) ">
<g transform="matrix( 1, 0, 0, 1, 0,0) ">
<use filter="url(#Filter_1)" xlink:href="#icone_persona_copy_4_0_Layer0_0_1_STROKES"/>
</g>

<g transform="matrix( 1, 0, 0, 1, 0,-2.2) ">
<use filter="url(#Filter_1)" xlink:href="#icone_persona_copy_4_0_Layer0_1_1_STROKES"/>
</g>

<g transform="matrix( 1, 0, 0, 1, 0,15.7) ">
<use filter="url(#Filter_1)" xlink:href="#icone_persona_copy_4_0_Layer0_2_1_STROKES"/>
</g>

<g transform="matrix( 1, 0, 0, 1, -0.5,1.9) ">
<use filter="url(#Filter_1)" xlink:href="#icone_persona_copy_4_0_Layer0_3_1_STROKES"/>
</g>

<g transform="matrix( 0.8056182861328125, 0, 0, 0.8056182861328125, 3.2,6.4) ">
<use filter="url(#Filter_1)" xlink:href="#icone_persona_copy_4_0_Layer0_4_1_STROKES" transform="matrix( 1.24127197265625, 0, 0, 1.24127197265625, -3.95,-7.9) "/>
</g>

<g transform="matrix( 0.8056182861328125, 0, 0, 0.8056182861328125, 3.5,6.15) ">
<use filter="url(#Filter_1)" xlink:href="#icone_persona_copy_4_0_Layer0_5_1_STROKES" transform="matrix( 1.24127197265625, 0, 0, 1.24127197265625, -4.3,-7.6) "/>
</g>

<g transform="matrix( 1, 0, 0, 1, -10.85,-0.2) ">
<use filter="url(#Filter_1)" xlink:href="#icone_persona_copy_4_0_Layer0_6_1_STROKES"/>
</g>

<g transform="matrix( 1, 0, 0, 1, 0,0) ">
<use filter="url(#Filter_1)" xlink:href="#icone_persona_copy_4_0_Layer0_7_1_STROKES"/>
</g>
</g>
</svg>
