
<svg xmlns="http://www.w3.org/2000/svg" version="1.1" xmlns:xlink="http://www.w3.org/1999/xlink" preserveAspectRatio="none" x="0px" y="0px" width="100px" height="100px" viewBox="0 0 100 100">
<defs>
<path id="nave_0_Layer0_0_1_STROKES" stroke="#FFFFFF" stroke-width="1" stroke-linejoin="round" stroke-linecap="round" fill="none" d="
M 2.198092651367233 10.657858276367165
L 2.198092651367233 9.240393066406227 2.283999633789108 9.240393066406227 6.9659301757812955 7.30748596191404 3.143069458007858 0.39197387695310226 7.3954650878906705 0.005392456054664763 18.821093750000045 7.049765014648415 22.386233520507858 7.393392944335915 26.037280273437545 9.841741943359352 31.921908569335983 12.032369995117165 26.037280273437545 14.051184082031227 22.386233520507858 16.499533081054665 18.821093750000045 16.843161010742165 7.3954650878906705 23.887533569335915 3.143069458007858 23.500952148437477 6.9659301757812955 16.58544006347654 2.283999633789108 14.69548645019529 2.198092651367233 13.406881713867165
M 22.300326538085983 10.786718749999977
L 11.304232788085983 7.908834838867165 11.304232788085983 11.77464904785154 11.304232788085983 15.72637023925779 22.300326538085983 12.80553283691404 22.300326538085983 11.77464904785154 22.300326538085983 10.786718749999977 Z
M 8.76997680664067 10.958532714843727
L 8.76997680664067 12.848486328124977 0.007464599609420475 12.80553283691404 0.007464599609420475 10.91557922363279 8.76997680664067 10.958532714843727 Z"/>
</defs>

<g transform="matrix( 2.818389892578125, 0, 0, 2.818389892578125, 5.05,16.35) ">
<g transform="matrix( 0.85906982421875, 0, 0, 0.85906982421875, -1047.8,-308.1) ">
<use xlink:href="#nave_0_Layer0_0_1_STROKES" transform="matrix( 1.1640472412109375, 0, 0, 1.1640472412109375, 1219.65,358.6) "/>
</g>
</g>
</svg>
