
<svg xmlns="http://www.w3.org/2000/svg" version="1.1" xmlns:xlink="http://www.w3.org/1999/xlink" preserveAspectRatio="none" x="0px" y="0px" width="100px" height="100px" viewBox="0 0 100 100">
<defs>
<path id="lupa_0_Layer0_0_1_STROKES" stroke="#FFFFFF" stroke-width="1.5" stroke-linejoin="round" stroke-linecap="round" fill="none" d="
M 14.085253906250045 11.834216308593795
L 10.703808593749955 15.215661621093659
M 14.085253906250045 11.834216308593795
Q 12.04229736328125 9.791259765625 12.112744140624955 6.9029418945312955 12.04229736328125 4.0850708007812955 14.085253906250045 2.0421142578125 16.05776367187491 -0.0008422851562954747 19.016528320312545 -0.0008422851562954747 21.834399414062545 -0.0712890625 23.877355957031114 1.9716674804687955 25.92031249999991 4.014624023437477 25.92031249999991 6.9029418945312955 25.92031249999991 9.791259765625 23.947802734375045 11.834216308593795 21.90484619140625 13.877172851562477 19.016528320312545 13.806726074218659 16.128210449218614 13.877172851562477 14.085253906250045 11.834216308593795 Z
M 9.506213378906295 14.581640624999977
L 11.408276367187455 16.48370361328125 1.8979614257812045 26.064465332031205 -0.004101562499954525 24.162402343750045 9.506213378906295 14.581640624999977 Z"/>
</defs>

<g transform="matrix( 2.71923828125, 0, 0, 2.71923828125, 14.8,14.6) ">
<g transform="matrix( 1.408935546875, 0, 0, 1.408935546875, -1479.95,-605.35) ">
<use xlink:href="#lupa_0_Layer0_0_1_STROKES" transform="matrix( 0.709747314453125, 0, 0, 0.709747314453125, 1050.4,429.65) "/>
</g>
</g>
</svg>
